<svg width="82" height="82" viewBox="0 0 82 82" fill="none" xmlns="http://www.w3.org/2000/svg">
<rect width="82" height="82" rx="5" fill="#8587DC"/>
<path d="M41 65L40.7332 64.5998C38.8808 61.8212 37.9546 60.4319 36.7309 59.4262C35.6476 58.5358 34.3994 57.8678 33.0576 57.4603C31.542 57 29.8723 57 26.5328 57H22.8666C19.8797 57 18.3862 57 17.2454 56.4187C16.2418 55.9074 15.4259 55.0915 14.9146 54.088C14.3333 52.9471 14.3333 51.4536 14.3333 48.4667V25.5333C14.3333 22.5464 14.3333 21.0529 14.9146 19.9121C15.4259 18.9085 16.2418 18.0926 17.2454 17.5813C18.3862 17 19.8797 17 22.8666 17H23.9333C29.9072 17 32.8942 17 35.1759 18.1626C37.1829 19.1852 38.8147 20.817 39.8374 22.8241C41 25.1058 41 28.0928 41 34.0667M41 65V34.0667M41 65L41.2668 64.5998C43.1192 61.8212 44.0454 60.4319 45.269 59.4262C46.3524 58.5358 47.6006 57.8678 48.9424 57.4603C50.458 57 52.1277 57 55.4671 57H59.1333C62.1203 57 63.6137 57 64.7546 56.4187C65.7581 55.9074 66.574 55.0915 67.0853 54.088C67.6666 52.9471 67.6666 51.4536 67.6666 48.4667V25.5333C67.6666 22.5464 67.6666 21.0529 67.0853 19.9121C66.574 18.9085 65.7581 18.0926 64.7546 17.5813C63.6137 17 62.1203 17 59.1333 17H58.0666C52.0928 17 49.1058 17 46.8241 18.1626C44.817 19.1852 43.1852 20.817 42.1626 22.8241C41 25.1058 41 28.0928 41 34.0667" stroke="#262626" stroke-width="5" stroke-linecap="round" stroke-linejoin="round"/>
</svg>
