<svg width="175" height="119" viewBox="0 0 175 119" fill="none" xmlns="http://www.w3.org/2000/svg">
<path d="M81.0952 118.387H109.099L39.7276 49.251H11.7234L81.0952 118.387Z" fill="white"/>
<path d="M54.1147 49.251L120.988 115.897V49.251H102.891V70.2922L81.7774 49.251L54.1147 49.251Z" fill="white"/>
<path d="M0 51.5654V118.386H18.097V97.3451L39.2099 118.386H67.0492L0 51.5654Z" fill="white"/>
<path d="M8.512 21.392C6.57067 21.392 4.93733 20.9627 3.612 20.104C2.28667 19.2267 1.35333 18.0413 0.812 16.548L4.116 14.616C4.88133 16.6133 6.384 17.612 8.624 17.612C9.70667 17.612 10.5 17.416 11.004 17.024C11.508 16.632 11.76 16.1373 11.76 15.54C11.76 14.8493 11.452 14.3173 10.836 13.944C10.22 13.552 9.11867 13.132 7.532 12.684C6.65467 12.4227 5.908 12.1613 5.292 11.9C4.69467 11.6387 4.088 11.2933 3.472 10.864C2.87467 10.416 2.41733 9.856 2.1 9.184C1.78267 8.512 1.624 7.728 1.624 6.832C1.624 5.05867 2.24933 3.64933 3.5 2.604C4.76933 1.54 6.29067 1.008 8.064 1.008C9.65067 1.008 11.0413 1.4 12.236 2.184C13.4493 2.94933 14.392 4.02267 15.064 5.404L11.816 7.28C11.032 5.6 9.78133 4.76 8.064 4.76C7.26133 4.76 6.62667 4.94667 6.16 5.32C5.712 5.67467 5.488 6.14133 5.488 6.72C5.488 7.336 5.74 7.84 6.244 8.232C6.76667 8.60533 7.756 9.016 9.212 9.464C9.80933 9.65067 10.2573 9.8 10.556 9.912C10.8733 10.0053 11.2933 10.164 11.816 10.388C12.3573 10.5933 12.768 10.7893 13.048 10.976C13.3467 11.1627 13.6827 11.4147 14.056 11.732C14.4293 12.0493 14.7093 12.376 14.896 12.712C15.1013 13.048 15.2693 13.4587 15.4 13.944C15.5493 14.4107 15.624 14.924 15.624 15.484C15.624 17.2947 14.9613 18.732 13.636 19.796C12.3293 20.86 10.6213 21.392 8.512 21.392ZM28.999 7H32.611V21H28.999V19.348C27.9164 20.7107 26.395 21.392 24.435 21.392C22.5684 21.392 20.963 20.6827 19.619 19.264C18.2937 17.8267 17.631 16.072 17.631 14C17.631 11.928 18.2937 10.1827 19.619 8.764C20.963 7.32667 22.5684 6.608 24.435 6.608C26.395 6.608 27.9164 7.28933 28.999 8.652V7ZM22.335 16.856C23.063 17.584 23.987 17.948 25.107 17.948C26.227 17.948 27.151 17.584 27.879 16.856C28.6257 16.1093 28.999 15.1573 28.999 14C28.999 12.8427 28.6257 11.9 27.879 11.172C27.151 10.4253 26.227 10.052 25.107 10.052C23.987 10.052 23.063 10.4253 22.335 11.172C21.607 11.9 21.243 12.8427 21.243 14C21.243 15.1573 21.607 16.1093 22.335 16.856ZM51.3704 6.608C52.9757 6.608 54.2544 7.13067 55.2064 8.176C56.177 9.22133 56.6624 10.6213 56.6624 12.376V21H53.0504V12.628C53.0504 11.788 52.845 11.1347 52.4344 10.668C52.0237 10.2013 51.445 9.968 50.6984 9.968C49.877 9.968 49.233 10.2387 48.7664 10.78C48.3184 11.3213 48.0944 12.1053 48.0944 13.132V21H44.4824V12.628C44.4824 11.788 44.277 11.1347 43.8664 10.668C43.4557 10.2013 42.877 9.968 42.1304 9.968C41.3277 9.968 40.6837 10.2387 40.1984 10.78C39.7317 11.3213 39.4984 12.1053 39.4984 13.132V21H35.8864V7H39.4984V8.484C40.3384 7.23333 41.6357 6.608 43.3904 6.608C45.1077 6.608 46.377 7.28 47.1984 8.624C48.1317 7.28 49.5224 6.608 51.3704 6.608ZM67.8781 6.608C69.7635 6.608 71.3688 7.32667 72.6941 8.764C74.0381 10.1827 74.7101 11.928 74.7101 14C74.7101 16.072 74.0381 17.8267 72.6941 19.264C71.3688 20.6827 69.7635 21.392 67.8781 21.392C65.9181 21.392 64.4061 20.7107 63.3421 19.348V26.6H59.7301V7H63.3421V8.652C64.4061 7.28933 65.9181 6.608 67.8781 6.608ZM64.4341 16.856C65.1621 17.584 66.0861 17.948 67.2061 17.948C68.3261 17.948 69.2501 17.584 69.9781 16.856C70.7248 16.1093 71.0981 15.1573 71.0981 14C71.0981 12.8427 70.7248 11.9 69.9781 11.172C69.2501 10.4253 68.3261 10.052 67.2061 10.052C66.0861 10.052 65.1621 10.4253 64.4341 11.172C63.7061 11.9 63.3421 12.8427 63.3421 14C63.3421 15.1573 63.7061 16.1093 64.4341 16.856ZM77.2575 21V0.559999H80.8695V21H77.2575ZM87.2274 15.484C87.7128 17.2387 89.0288 18.116 91.1754 18.116C92.5568 18.116 93.6021 17.6493 94.3114 16.716L97.2234 18.396C95.8421 20.3933 93.8074 21.392 91.1194 21.392C88.8048 21.392 86.9474 20.692 85.5474 19.292C84.1474 17.892 83.4474 16.128 83.4474 14C83.4474 11.8907 84.1381 10.136 85.5194 8.736C86.9008 7.31733 88.6741 6.608 90.8394 6.608C92.8928 6.608 94.5821 7.31733 95.9074 8.736C97.2514 10.1547 97.9234 11.9093 97.9234 14C97.9234 14.4667 97.8768 14.9613 97.7834 15.484H87.2274ZM87.1714 12.684H94.3114C94.1061 11.732 93.6768 11.0227 93.0234 10.556C92.3888 10.0893 91.6608 9.856 90.8394 9.856C89.8688 9.856 89.0661 10.108 88.4314 10.612C87.7968 11.0973 87.3768 11.788 87.1714 12.684ZM111.477 17.304H118.953V21H107.613V1.4H111.477V17.304ZM132.635 19.264C131.197 20.6827 129.443 21.392 127.371 21.392C125.299 21.392 123.544 20.6827 122.107 19.264C120.688 17.8267 119.979 16.072 119.979 14C119.979 11.928 120.688 10.1827 122.107 8.764C123.544 7.32667 125.299 6.608 127.371 6.608C129.443 6.608 131.197 7.32667 132.635 8.764C134.072 10.1827 134.791 11.928 134.791 14C134.791 16.072 134.072 17.8267 132.635 19.264ZM124.655 16.772C125.383 17.5 126.288 17.864 127.371 17.864C128.453 17.864 129.359 17.5 130.087 16.772C130.815 16.044 131.179 15.12 131.179 14C131.179 12.88 130.815 11.956 130.087 11.228C129.359 10.5 128.453 10.136 127.371 10.136C126.288 10.136 125.383 10.5 124.655 11.228C123.945 11.956 123.591 12.88 123.591 14C123.591 15.12 123.945 16.044 124.655 16.772ZM148.056 7H151.584V20.328C151.584 22.4933 150.865 24.1453 149.428 25.284C148.009 26.4227 146.292 26.992 144.276 26.992C142.764 26.992 141.429 26.7027 140.272 26.124C139.133 25.5453 138.256 24.696 137.64 23.576L140.72 21.812C141.429 23.1187 142.652 23.772 144.388 23.772C145.526 23.772 146.422 23.4733 147.076 22.876C147.729 22.2787 148.056 21.4293 148.056 20.328V18.816C146.992 20.2347 145.498 20.944 143.576 20.944C141.597 20.944 139.936 20.2533 138.592 18.872C137.266 17.472 136.604 15.7733 136.604 13.776C136.604 11.7973 137.276 10.108 138.62 8.708C139.964 7.308 141.616 6.608 143.576 6.608C145.498 6.608 146.992 7.31733 148.056 8.736V7ZM141.308 16.548C142.054 17.2573 142.997 17.612 144.136 17.612C145.274 17.612 146.208 17.2573 146.936 16.548C147.682 15.82 148.056 14.896 148.056 13.776C148.056 12.6747 147.682 11.7693 146.936 11.06C146.208 10.332 145.274 9.968 144.136 9.968C142.997 9.968 142.054 10.332 141.308 11.06C140.58 11.7693 140.216 12.6747 140.216 13.776C140.216 14.896 140.58 15.82 141.308 16.548ZM166.787 19.264C165.35 20.6827 163.595 21.392 161.523 21.392C159.451 21.392 157.696 20.6827 156.259 19.264C154.84 17.8267 154.131 16.072 154.131 14C154.131 11.928 154.84 10.1827 156.259 8.764C157.696 7.32667 159.451 6.608 161.523 6.608C163.595 6.608 165.35 7.32667 166.787 8.764C168.224 10.1827 168.943 11.928 168.943 14C168.943 16.072 168.224 17.8267 166.787 19.264ZM158.807 16.772C159.535 17.5 160.44 17.864 161.523 17.864C162.606 17.864 163.511 17.5 164.239 16.772C164.967 16.044 165.331 15.12 165.331 14C165.331 12.88 164.967 11.956 164.239 11.228C163.511 10.5 162.606 10.136 161.523 10.136C160.44 10.136 159.535 10.5 158.807 11.228C158.098 11.956 157.743 12.88 157.743 14C157.743 15.12 158.098 16.044 158.807 16.772Z" fill="white"/>
</svg>
