<svg width="100" height="125" viewBox="0 0 212 235" fill="none" xmlns="http://www.w3.org/2000/svg">
<path d="M0 0H212V174.721L106 235L0 174.721V0Z" fill="#8587DC"/>
<path d="M123.368 84H146.977L88.4928 26H64.8836L123.368 84Z" fill="#4F4F4F"/>
<path d="M100.622 26L157 81.9108V26H141.743V43.6521L123.943 26L100.622 26Z" fill="#262626"/>
<path d="M55 27.9417V83.9997H70.2568V66.3475L88.0563 83.9997H111.527L55 27.9417Z" fill="#1A1919"/>
<path d="M40.296 120.336C38.632 120.336 37.232 119.968 36.096 119.232C34.96 118.48 34.16 117.464 33.696 116.184L36.528 114.528C37.184 116.24 38.472 117.096 40.392 117.096C41.32 117.096 42 116.928 42.432 116.592C42.864 116.256 43.08 115.832 43.08 115.32C43.08 114.728 42.816 114.272 42.288 113.952C41.76 113.616 40.816 113.256 39.456 112.872C38.704 112.648 38.064 112.424 37.536 112.2C37.024 111.976 36.504 111.68 35.976 111.312C35.464 110.928 35.072 110.448 34.8 109.872C34.528 109.296 34.392 108.624 34.392 107.856C34.392 106.336 34.928 105.128 36 104.232C37.088 103.32 38.392 102.864 39.912 102.864C41.272 102.864 42.464 103.2 43.488 103.872C44.528 104.528 45.336 105.448 45.912 106.632L43.128 108.24C42.456 106.8 41.384 106.08 39.912 106.08C39.224 106.08 38.68 106.24 38.28 106.56C37.896 106.864 37.704 107.264 37.704 107.76C37.704 108.288 37.92 108.72 38.352 109.056C38.8 109.376 39.648 109.728 40.896 110.112C41.408 110.272 41.792 110.4 42.048 110.496C42.32 110.576 42.68 110.712 43.128 110.904C43.592 111.08 43.944 111.248 44.184 111.408C44.44 111.568 44.728 111.784 45.048 112.056C45.368 112.328 45.608 112.608 45.768 112.896C45.944 113.184 46.088 113.536 46.2 113.952C46.328 114.352 46.392 114.792 46.392 115.272C46.392 116.824 45.824 118.056 44.688 118.968C43.568 119.88 42.104 120.336 40.296 120.336ZM57.8563 108H60.9523V120H57.8563V118.584C56.9283 119.752 55.6243 120.336 53.9443 120.336C52.3443 120.336 50.9683 119.728 49.8163 118.512C48.6803 117.28 48.1123 115.776 48.1123 114C48.1123 112.224 48.6803 110.728 49.8163 109.512C50.9683 108.28 52.3443 107.664 53.9443 107.664C55.6243 107.664 56.9283 108.248 57.8563 109.416V108ZM52.1443 116.448C52.7683 117.072 53.5603 117.384 54.5203 117.384C55.4803 117.384 56.2723 117.072 56.8963 116.448C57.5363 115.808 57.8563 114.992 57.8563 114C57.8563 113.008 57.5363 112.2 56.8963 111.576C56.2723 110.936 55.4803 110.616 54.5203 110.616C53.5603 110.616 52.7683 110.936 52.1443 111.576C51.5203 112.2 51.2083 113.008 51.2083 114C51.2083 114.992 51.5203 115.808 52.1443 116.448ZM77.0318 107.664C78.4078 107.664 79.5038 108.112 80.3198 109.008C81.1518 109.904 81.5678 111.104 81.5678 112.608V120H78.4718V112.824C78.4718 112.104 78.2958 111.544 77.9438 111.144C77.5918 110.744 77.0958 110.544 76.4557 110.544C75.7518 110.544 75.1998 110.776 74.7998 111.24C74.4158 111.704 74.2238 112.376 74.2238 113.256V120H71.1278V112.824C71.1278 112.104 70.9518 111.544 70.5998 111.144C70.2478 110.744 69.7518 110.544 69.1118 110.544C68.4238 110.544 67.8718 110.776 67.4558 111.24C67.0558 111.704 66.8558 112.376 66.8558 113.256V120H63.7598V108H66.8558V109.272C67.5758 108.2 68.6878 107.664 70.1918 107.664C71.6638 107.664 72.7518 108.24 73.4558 109.392C74.2558 108.24 75.4478 107.664 77.0318 107.664ZM91.1813 107.664C92.7973 107.664 94.1733 108.28 95.3093 109.512C96.4613 110.728 97.0373 112.224 97.0373 114C97.0373 115.776 96.4613 117.28 95.3093 118.512C94.1733 119.728 92.7973 120.336 91.1813 120.336C89.5013 120.336 88.2053 119.752 87.2933 118.584V124.8H84.1973V108H87.2933V109.416C88.2053 108.248 89.5013 107.664 91.1813 107.664ZM88.2293 116.448C88.8533 117.072 89.6453 117.384 90.6053 117.384C91.5653 117.384 92.3573 117.072 92.9813 116.448C93.6213 115.808 93.9413 114.992 93.9413 114C93.9413 113.008 93.6213 112.2 92.9813 111.576C92.3573 110.936 91.5653 110.616 90.6053 110.616C89.6453 110.616 88.8533 110.936 88.2293 111.576C87.6053 112.2 87.2933 113.008 87.2933 114C87.2933 114.992 87.6053 115.808 88.2293 116.448ZM99.2207 120V102.48H102.317V120H99.2207ZM107.766 115.272C108.182 116.776 109.31 117.528 111.15 117.528C112.334 117.528 113.23 117.128 113.838 116.328L116.334 117.768C115.15 119.48 113.406 120.336 111.102 120.336C109.118 120.336 107.526 119.736 106.326 118.536C105.126 117.336 104.526 115.824 104.526 114C104.526 112.192 105.118 110.688 106.302 109.488C107.486 108.272 109.006 107.664 110.862 107.664C112.622 107.664 114.07 108.272 115.206 109.488C116.358 110.704 116.934 112.208 116.934 114C116.934 114.4 116.894 114.824 116.814 115.272H107.766ZM107.718 112.872H113.838C113.662 112.056 113.294 111.448 112.734 111.048C112.19 110.648 111.566 110.448 110.862 110.448C110.03 110.448 109.342 110.664 108.798 111.096C108.254 111.512 107.894 112.104 107.718 112.872ZM128.552 116.832H134.96V120H125.24V103.2H128.552V116.832ZM146.687 118.512C145.455 119.728 143.951 120.336 142.175 120.336C140.399 120.336 138.895 119.728 137.663 118.512C136.447 117.28 135.839 115.776 135.839 114C135.839 112.224 136.447 110.728 137.663 109.512C138.895 108.28 140.399 107.664 142.175 107.664C143.951 107.664 145.455 108.28 146.687 109.512C147.919 110.728 148.535 112.224 148.535 114C148.535 115.776 147.919 117.28 146.687 118.512ZM139.847 116.376C140.471 117 141.247 117.312 142.175 117.312C143.103 117.312 143.879 117 144.503 116.376C145.127 115.752 145.439 114.96 145.439 114C145.439 113.04 145.127 112.248 144.503 111.624C143.879 111 143.103 110.688 142.175 110.688C141.247 110.688 140.471 111 139.847 111.624C139.239 112.248 138.935 113.04 138.935 114C138.935 114.96 139.239 115.752 139.847 116.376ZM159.905 108H162.929V119.424C162.929 121.28 162.313 122.696 161.081 123.672C159.865 124.648 158.393 125.136 156.665 125.136C155.369 125.136 154.225 124.888 153.233 124.392C152.257 123.896 151.505 123.168 150.977 122.208L153.617 120.696C154.225 121.816 155.273 122.376 156.761 122.376C157.737 122.376 158.505 122.12 159.065 121.608C159.625 121.096 159.905 120.368 159.905 119.424V118.128C158.993 119.344 157.713 119.952 156.065 119.952C154.369 119.952 152.945 119.36 151.793 118.176C150.657 116.976 150.089 115.52 150.089 113.808C150.089 112.112 150.665 110.664 151.817 109.464C152.969 108.264 154.385 107.664 156.065 107.664C157.713 107.664 158.993 108.272 159.905 109.488V108ZM154.121 116.184C154.761 116.792 155.569 117.096 156.545 117.096C157.521 117.096 158.321 116.792 158.945 116.184C159.585 115.56 159.905 114.768 159.905 113.808C159.905 112.864 159.585 112.088 158.945 111.48C158.321 110.856 157.521 110.544 156.545 110.544C155.569 110.544 154.761 110.856 154.121 111.48C153.497 112.088 153.185 112.864 153.185 113.808C153.185 114.768 153.497 115.56 154.121 116.184ZM175.96 118.512C174.728 119.728 173.224 120.336 171.448 120.336C169.672 120.336 168.168 119.728 166.936 118.512C165.72 117.28 165.112 115.776 165.112 114C165.112 112.224 165.72 110.728 166.936 109.512C168.168 108.28 169.672 107.664 171.448 107.664C173.224 107.664 174.728 108.28 175.96 109.512C177.192 110.728 177.808 112.224 177.808 114C177.808 115.776 177.192 117.28 175.96 118.512ZM169.12 116.376C169.744 117 170.52 117.312 171.448 117.312C172.376 117.312 173.152 117 173.776 116.376C174.4 115.752 174.712 114.96 174.712 114C174.712 113.04 174.4 112.248 173.776 111.624C173.152 111 172.376 110.688 171.448 110.688C170.52 110.688 169.744 111 169.12 111.624C168.512 112.248 168.208 113.04 168.208 114C168.208 114.96 168.512 115.752 169.12 116.376Z" fill="black"/>
</svg>
